<?xml version="1.0" encoding="UTF-8" standalone="no"?>
<!DOCTYPE svg PUBLIC "-//W3C//DTD SVG 1.1//EN"
 "http://www.w3.org/Graphics/SVG/1.1/DTD/svg11.dtd">
<!-- Generated by graphviz version 2.44.1 (20200629.0846)
 -->
<!-- Pages: 1 -->
<svg width="194pt" height="260pt"
 viewBox="0.00 0.00 194.11 260.00" xmlns="http://www.w3.org/2000/svg" xmlns:xlink="http://www.w3.org/1999/xlink">
<g id="graph0" class="graph" transform="scale(1 1) rotate(0) translate(4 256)">
<polygon fill="white" stroke="transparent" points="-4,4 -4,-256 190.11,-256 190.11,4 -4,4"/>
<!-- 0 -->
<g id="node1" class="node">
<title>0</title>
<ellipse fill="none" stroke="black" cx="129.15" cy="-234" rx="46.29" ry="18"/>
<text text-anchor="middle" x="129.15" y="-230.3" font-family="Times,serif" font-size="14.00">service_A</text>
</g>
<!-- 1 -->
<g id="node2" class="node">
<title>1</title>
<ellipse fill="none" stroke="black" cx="46.15" cy="-162" rx="46.29" ry="18"/>
<text text-anchor="middle" x="46.15" y="-158.3" font-family="Times,serif" font-size="14.00">service_C</text>
</g>
<!-- 0&#45;&gt;1 -->
<g id="edge4" class="edge">
<title>0&#45;&gt;1</title>
<path fill="none" stroke="black" d="M105.91,-218.15C93.77,-208.89 79.15,-196.78 67.33,-186.26"/>
<polygon fill="black" stroke="black" points="69.41,-183.42 59.65,-179.29 64.7,-188.61 69.41,-183.42"/>
</g>
<!-- 2 -->
<g id="node3" class="node">
<title>2</title>
<ellipse fill="none" stroke="black" cx="115.15" cy="-18" rx="46.29" ry="18"/>
<text text-anchor="middle" x="115.15" y="-14.3" font-family="Times,serif" font-size="14.00">service_D</text>
</g>
<!-- 0&#45;&gt;2 -->
<g id="edge7" class="edge">
<title>0&#45;&gt;2</title>
<path fill="none" stroke="black" d="M135.11,-216C149.96,-186.01 182.47,-122.17 161.15,-72 156.21,-60.39 147.35,-50.09 138.62,-41.73"/>
<polygon fill="black" stroke="black" points="140.85,-39.02 131.09,-34.9 136.14,-44.21 140.85,-39.02"/>
</g>
<!-- 3 -->
<g id="node4" class="node">
<title>3</title>
<ellipse fill="none" stroke="black" cx="115.15" cy="-90" rx="46.29" ry="18"/>
<text text-anchor="middle" x="115.15" y="-86.3" font-family="Times,serif" font-size="14.00">service_B</text>
</g>
<!-- 0&#45;&gt;3 -->
<g id="edge10" class="edge">
<title>0&#45;&gt;3</title>
<path fill="none" stroke="black" d="M122.93,-216.15C117.97,-192.05 113.27,-147.45 112.39,-118.51"/>
<polygon fill="black" stroke="black" points="115.89,-118.22 112.25,-108.27 108.89,-118.32 115.89,-118.22"/>
</g>
<!-- 1&#45;&gt;0 -->
<g id="edge2" class="edge">
<title>1&#45;&gt;0</title>
<path fill="none" stroke="black" d="M69.22,-177.72C81.4,-187 96.11,-199.19 107.99,-209.76"/>
<polygon fill="black" stroke="black" points="105.94,-212.63 115.7,-216.76 110.65,-207.45 105.94,-212.63"/>
</g>
<!-- 1&#45;&gt;2 -->
<g id="edge9" class="edge">
<title>1&#45;&gt;2</title>
<path fill="none" stroke="black" d="M39.09,-143.94C36.86,-125.25 39.23,-94.89 51.15,-72 57.8,-59.22 68.71,-47.75 79.75,-38.77"/>
<polygon fill="black" stroke="black" points="81.91,-41.52 87.76,-32.69 77.68,-35.95 81.91,-41.52"/>
</g>
<!-- 1&#45;&gt;3 -->
<g id="edge11" class="edge">
<title>1&#45;&gt;3</title>
<path fill="none" stroke="black" d="M56.66,-144.41C64.81,-135.11 76.21,-123.38 86.85,-113.28"/>
<polygon fill="black" stroke="black" points="89.45,-115.64 94.4,-106.27 84.69,-110.51 89.45,-115.64"/>
</g>
<!-- 2&#45;&gt;0 -->
<g id="edge3" class="edge">
<title>2&#45;&gt;0</title>
<path fill="none" stroke="black" d="M143.38,-32.29C157.23,-41.69 172.14,-55.53 179.15,-72 198.85,-118.34 172.61,-176.36 151.07,-208.57"/>
<polygon fill="black" stroke="black" points="148.07,-206.75 145.16,-216.94 153.79,-210.79 148.07,-206.75"/>
</g>
<!-- 2&#45;&gt;1 -->
<g id="edge6" class="edge">
<title>2&#45;&gt;1</title>
<path fill="none" stroke="black" d="M100.39,-35.11C89.88,-44.52 76.74,-57.41 69.15,-72 59.18,-91.14 55.89,-115.49 53.57,-133.88"/>
<polygon fill="black" stroke="black" points="50.08,-133.57 52.27,-143.94 57.02,-134.47 50.08,-133.57"/>
</g>
<!-- 2&#45;&gt;3 -->
<g id="edge12" class="edge">
<title>2&#45;&gt;3</title>
<path fill="none" stroke="black" d="M121.06,-36.28C121.86,-44.03 122.09,-53.36 121.74,-62.01"/>
<polygon fill="black" stroke="black" points="118.24,-61.83 121.02,-72.05 125.22,-62.33 118.24,-61.83"/>
</g>
<!-- 3&#45;&gt;0 -->
<g id="edge1" class="edge">
<title>3&#45;&gt;0</title>
<path fill="none" stroke="black" d="M121.43,-108.19C126.38,-132.42 131.05,-176.89 131.91,-205.68"/>
<polygon fill="black" stroke="black" points="128.41,-205.92 132.04,-215.87 135.41,-205.83 128.41,-205.92"/>
</g>
<!-- 3&#45;&gt;1 -->
<g id="edge5" class="edge">
<title>3&#45;&gt;1</title>
<path fill="none" stroke="black" d="M104.6,-107.63C96.42,-116.95 85,-128.7 74.35,-138.81"/>
<polygon fill="black" stroke="black" points="71.75,-136.45 66.8,-145.81 76.51,-141.58 71.75,-136.45"/>
</g>
<!-- 3&#45;&gt;2 -->
<g id="edge8" class="edge">
<title>3&#45;&gt;2</title>
<path fill="none" stroke="black" d="M109.27,-72.05C108.45,-64.35 108.21,-55.03 108.54,-46.36"/>
<polygon fill="black" stroke="black" points="112.04,-46.49 109.23,-36.28 105.06,-46.01 112.04,-46.49"/>
</g>
</g>
</svg>
