<?xml version="1.0" encoding="UTF-8" standalone="no"?>
<!DOCTYPE svg PUBLIC "-//W3C//DTD SVG 1.1//EN"
 "http://www.w3.org/Graphics/SVG/1.1/DTD/svg11.dtd">
<!-- Generated by graphviz version 2.44.1 (20200629.0846)
 -->
<!-- Pages: 1 -->
<svg width="278pt" height="404pt"
 viewBox="0.00 0.00 278.08 404.00" xmlns="http://www.w3.org/2000/svg" xmlns:xlink="http://www.w3.org/1999/xlink">
<g id="graph0" class="graph" transform="scale(1 1) rotate(0) translate(4 400)">
<polygon fill="white" stroke="transparent" points="-4,4 -4,-400 274.08,-400 274.08,4 -4,4"/>
<!-- 0 -->
<g id="node1" class="node">
<title>0</title>
<ellipse fill="none" stroke="black" cx="129.71" cy="-378" rx="46.29" ry="18"/>
<text text-anchor="middle" x="129.71" y="-374.3" font-family="Times,serif" font-size="14.00">service_G</text>
</g>
<!-- 4 -->
<g id="node5" class="node">
<title>4</title>
<ellipse fill="none" stroke="black" cx="55.71" cy="-306" rx="46.29" ry="18"/>
<text text-anchor="middle" x="55.71" y="-302.3" font-family="Times,serif" font-size="14.00">service_D</text>
</g>
<!-- 0&#45;&gt;4 -->
<g id="edge13" class="edge">
<title>0&#45;&gt;4</title>
<path fill="none" stroke="black" d="M112.92,-361.12C103.17,-351.9 90.73,-340.13 79.94,-329.92"/>
<polygon fill="black" stroke="black" points="82.1,-327.15 72.43,-322.82 77.29,-332.24 82.1,-327.15"/>
</g>
<!-- 1 -->
<g id="node2" class="node">
<title>1</title>
<ellipse fill="none" stroke="black" cx="129.71" cy="-234" rx="46.29" ry="18"/>
<text text-anchor="middle" x="129.71" y="-230.3" font-family="Times,serif" font-size="14.00">service_A</text>
</g>
<!-- 1&#45;&gt;0 -->
<g id="edge1" class="edge">
<title>1&#45;&gt;0</title>
<path fill="none" stroke="black" d="M129.71,-252.19C129.71,-276.42 129.71,-320.89 129.71,-349.68"/>
<polygon fill="black" stroke="black" points="126.21,-349.87 129.71,-359.87 133.21,-349.87 126.21,-349.87"/>
</g>
<!-- 2 -->
<g id="node3" class="node">
<title>2</title>
<ellipse fill="none" stroke="black" cx="200.71" cy="-162" rx="44.69" ry="18"/>
<text text-anchor="middle" x="200.71" y="-158.3" font-family="Times,serif" font-size="14.00">service_F</text>
</g>
<!-- 1&#45;&gt;2 -->
<g id="edge5" class="edge">
<title>1&#45;&gt;2</title>
<path fill="none" stroke="black" d="M145.82,-217.12C155.17,-207.9 167.11,-196.13 177.46,-185.92"/>
<polygon fill="black" stroke="black" points="180,-188.33 184.66,-178.82 175.08,-183.35 180,-188.33"/>
</g>
<!-- 3 -->
<g id="node4" class="node">
<title>3</title>
<ellipse fill="none" stroke="black" cx="91.71" cy="-162" rx="46.29" ry="18"/>
<text text-anchor="middle" x="91.71" y="-158.3" font-family="Times,serif" font-size="14.00">service_C</text>
</g>
<!-- 1&#45;&gt;3 -->
<g id="edge7" class="edge">
<title>1&#45;&gt;3</title>
<path fill="none" stroke="black" d="M115.09,-216.76C109.75,-208.61 104.03,-198.53 99.43,-189.31"/>
<polygon fill="black" stroke="black" points="102.53,-187.68 95.11,-180.12 96.2,-190.66 102.53,-187.68"/>
</g>
<!-- 1&#45;&gt;4 -->
<g id="edge10" class="edge">
<title>1&#45;&gt;4</title>
<path fill="none" stroke="black" d="M117.97,-251.63C109.05,-261.04 96.63,-272.93 85.17,-283.1"/>
<polygon fill="black" stroke="black" points="82.7,-280.61 77.44,-289.81 87.29,-285.9 82.7,-280.61"/>
</g>
<!-- 5 -->
<g id="node6" class="node">
<title>5</title>
<ellipse fill="none" stroke="black" cx="91.71" cy="-18" rx="45.49" ry="18"/>
<text text-anchor="middle" x="91.71" y="-14.3" font-family="Times,serif" font-size="14.00">service_E</text>
</g>
<!-- 2&#45;&gt;5 -->
<g id="edge16" class="edge">
<title>2&#45;&gt;5</title>
<path fill="none" stroke="black" d="M192.15,-144.09C182.38,-125.53 165.33,-95.29 146.71,-72 138.08,-61.21 127.37,-50.43 117.7,-41.43"/>
<polygon fill="black" stroke="black" points="119.98,-38.78 110.22,-34.64 115.27,-43.95 119.98,-38.78"/>
</g>
<!-- 3&#45;&gt;1 -->
<g id="edge3" class="edge">
<title>3&#45;&gt;1</title>
<path fill="none" stroke="black" d="M106.26,-179.14C111.59,-187.26 117.3,-197.31 121.9,-206.52"/>
<polygon fill="black" stroke="black" points="118.8,-208.15 126.23,-215.7 125.13,-205.16 118.8,-208.15"/>
</g>
<!-- 6 -->
<g id="node7" class="node">
<title>6</title>
<ellipse fill="none" stroke="black" cx="91.71" cy="-90" rx="46.29" ry="18"/>
<text text-anchor="middle" x="91.71" y="-86.3" font-family="Times,serif" font-size="14.00">service_B</text>
</g>
<!-- 3&#45;&gt;6 -->
<g id="edge17" class="edge">
<title>3&#45;&gt;6</title>
<path fill="none" stroke="black" d="M85.83,-144.05C85.01,-136.35 84.77,-127.03 85.1,-118.36"/>
<polygon fill="black" stroke="black" points="88.6,-118.49 85.8,-108.28 81.62,-118.01 88.6,-118.49"/>
</g>
<!-- 4&#45;&gt;1 -->
<g id="edge4" class="edge">
<title>4&#45;&gt;1</title>
<path fill="none" stroke="black" d="M67.4,-288.41C76.37,-278.95 88.87,-266.98 100.39,-256.77"/>
<polygon fill="black" stroke="black" points="102.89,-259.24 108.15,-250.04 98.3,-253.95 102.89,-259.24"/>
</g>
<!-- 4&#45;&gt;2 -->
<g id="edge6" class="edge">
<title>4&#45;&gt;2</title>
<path fill="none" stroke="black" d="M97.74,-298.53C126.56,-291.84 163.33,-278.46 184.71,-252 198.63,-234.77 202.06,-209.5 202.34,-190.28"/>
<polygon fill="black" stroke="black" points="205.84,-190 202.21,-180.05 198.84,-190.09 205.84,-190"/>
</g>
<!-- 4&#45;&gt;3 -->
<g id="edge9" class="edge">
<title>4&#45;&gt;3</title>
<path fill="none" stroke="black" d="M58.85,-287.82C62.26,-269.8 68.12,-240.73 74.71,-216 77.01,-207.37 79.86,-198.06 82.57,-189.69"/>
<polygon fill="black" stroke="black" points="85.94,-190.65 85.76,-180.06 79.3,-188.45 85.94,-190.65"/>
</g>
<!-- 4&#45;&gt;5 -->
<g id="edge15" class="edge">
<title>4&#45;&gt;5</title>
<path fill="none" stroke="black" d="M36.21,-289.22C28.22,-279.14 20.36,-265.47 16.71,-252 -4.24,-174.64 -9.63,-142.92 27.71,-72 34.47,-59.16 45.5,-47.61 56.62,-38.6"/>
<polygon fill="black" stroke="black" points="58.81,-41.33 64.67,-32.5 54.58,-35.75 58.81,-41.33"/>
</g>
<!-- 5&#45;&gt;4 -->
<g id="edge12" class="edge">
<title>5&#45;&gt;4</title>
<path fill="none" stroke="black" d="M77.01,-35.14C66.51,-44.56 53.37,-57.45 45.71,-72 8.37,-142.92 13.76,-174.64 34.71,-252 37.21,-261.24 41.7,-270.58 46.05,-278.79"/>
<polygon fill="black" stroke="black" points="43.12,-280.72 50.98,-287.83 49.27,-277.37 43.12,-280.72"/>
</g>
<!-- 5&#45;&gt;6 -->
<g id="edge18" class="edge">
<title>5&#45;&gt;6</title>
<path fill="none" stroke="black" d="M97.62,-36.28C98.42,-44.03 98.65,-53.36 98.3,-62.01"/>
<polygon fill="black" stroke="black" points="94.8,-61.83 97.59,-72.05 101.78,-62.33 94.8,-61.83"/>
</g>
<!-- 6&#45;&gt;0 -->
<g id="edge2" class="edge">
<title>6&#45;&gt;0</title>
<path fill="none" stroke="black" d="M137.77,-92.05C175.99,-95.66 228.21,-107.53 254.71,-144 307.08,-216.1 208.16,-312.82 157.27,-355.37"/>
<polygon fill="black" stroke="black" points="155.05,-352.67 149.55,-361.73 159.49,-358.08 155.05,-352.67"/>
</g>
<!-- 6&#45;&gt;3 -->
<g id="edge8" class="edge">
<title>6&#45;&gt;3</title>
<path fill="none" stroke="black" d="M97.62,-108.28C98.42,-116.03 98.65,-125.36 98.3,-134.01"/>
<polygon fill="black" stroke="black" points="94.8,-133.83 97.59,-144.05 101.78,-134.33 94.8,-133.83"/>
</g>
<!-- 6&#45;&gt;4 -->
<g id="edge11" class="edge">
<title>6&#45;&gt;4</title>
<path fill="none" stroke="black" d="M69.19,-105.78C57.1,-115.13 43.35,-128.38 36.71,-144 17.85,-188.37 32.73,-245.44 44.65,-278.35"/>
<polygon fill="black" stroke="black" points="41.39,-279.64 48.21,-287.75 47.94,-277.16 41.39,-279.64"/>
</g>
<!-- 6&#45;&gt;5 -->
<g id="edge14" class="edge">
<title>6&#45;&gt;5</title>
<path fill="none" stroke="black" d="M85.83,-72.05C85.01,-64.35 84.77,-55.03 85.1,-46.36"/>
<polygon fill="black" stroke="black" points="88.6,-46.49 85.8,-36.28 81.62,-46.01 88.6,-46.49"/>
</g>
</g>
</svg>
